<?xml version="1.0" encoding="iso-8859-1"?>
<!-- Generator: Adobe Illustrator 19.0.0, SVG Export Plug-In . SVG Version: 6.00 Build 0)  -->
<svg version="1.1" id="Layer_1" xmlns="http://www.w3.org/2000/svg" xmlns:xlink="http://www.w3.org/1999/xlink" x="0px" y="0px"
	 viewBox="0 0 490.124 490.124" style="enable-background:new 0 0 490.124 490.124;" xml:space="preserve">
<g>
	<g>
		<path d="M479.487,249.624l-203.6-121.8l25.7-44.5c5.3-9.5,2.1-22.2-7.4-27.5l-87.9-53c-9.9-6.2-23.4-1.5-28.6,7.4l-59.3,102.7
			l-11.7-7.4c-9.4-5.9-23.2-2-28.6,7.4l-37.1,64.6c-5.3,9.5-2.1,22.2,7.4,27.5l147.2,88c8.2,5.6,20.5,4.3,28.6-7.4l38.1-64.6
			c5.3-9.5,2.1-22.2-7.4-27.5l-12.7-7.4l13.5-23.3l203.7,121.8c7.9,5.3,20.4,4.5,27.5-7.4
			C492.187,267.624,488.987,254.824,479.487,249.624z M195.587,182.824c-5.3,9.5-2.1,22.2,7.4,27.5l12.7,7.4l-16.9,29.7l-112.3-66.7
			l16.9-28.6l11.7,7.4c10.7,5.8,21.9,2.5,28.6-7.4l59.3-102.7l53,31.8L195.587,182.824z"/>
		<path d="M325.887,362.924h-284.9c-22.2,0-40.3,18-40.3,40.3v46.6c0,22.2,18,40.3,40.3,40.3h284.9c22.2,0,40.3-18,40.3-40.3v-46.6
			C366.187,380.924,348.187,362.924,325.887,362.924z M324.887,449.724h-283.9v-45.5l283.9-1.1V449.724z"/>
	</g>
</g>
<g>
</g>
<g>
</g>
<g>
</g>
<g>
</g>
<g>
</g>
<g>
</g>
<g>
</g>
<g>
</g>
<g>
</g>
<g>
</g>
<g>
</g>
<g>
</g>
<g>
</g>
<g>
</g>
<g>
</g>
</svg>
